General
Unique ID                                : 160846222381163236113770486401535568743 (0x7901DB096C7B1D84066E1525356FEB67)
Complete name                            : The.Matrix.Reloaded.2003.UHD.BluRay.2160p.TrueHD.Atmos.7.1.DV.HEVC.REMUX-FraMeSToR.mkv
Format                                   : Matroska
Format version                           : Version 4
File size                                : 70.0 GiB
Duration                                 : 2 h 18 min
Overall bit rate mode                    : Variable
Overall bit rate                         : 72.5 Mb/s
Movie name                               : The Matrix: Reloaded (2003) DV
Encoded date                             : UTC 2020-12-06 01:04:59
Writing application                      : mkvmerge v51.0.0 ('I Wish') 64-bit
Writing library                          : libebml v1.4.0 + libmatroska v1.6.2
IMDB                                     : tt0234215
TMDB                                     : movie/604

Video
ID                                       : 1
ID in the original source medium         : 4113 (0x1011)
Format                                   : HEVC
Format/Info                              : High Efficiency Video Coding
Format profile                           : Main 10@L5.1@High
HDR format                               : Dolby Vision, Version 1.0, dvhe.07.06, BL+EL+RPU, Blu-ray compatible / SMPTE ST 2086, HDR10 compatible
Codec ID                                 : V_MPEGH/ISO/HEVC
Duration                                 : 2 h 18 min
Bit rate                                 : 67.3 Mb/s
Width                                    : 3 840 pixels
Height                                   : 2 160 pixels
Display aspect ratio                     : 16:9
Frame rate mode                          : Constant
Frame rate                               : 23.976 (24000/1001) FPS
Color space                              : YUV
Chroma subsampling                       : 4:2:0 (Type 2)
Bit depth                                : 10 bits
Bits/(Pixel*Frame)                       : 0.338
Stream size                              : 65.0 GiB (93%)
Default                                  : Yes
Forced                                   : No
Color range                              : Limited
Color primaries                          : BT.2020
Transfer characteristics                 : PQ
Matrix coefficients                      : BT.2020 non-constant
Mastering display color primaries        : BT.2020
Mastering display luminance              : min: 0.0001 cd/m2, max: 1000 cd/m2
Maximum Content Light Level              : 996 cd/m2
Maximum Frame-Average Light Level        : 246 cd/m2
Original source medium                   : Blu-ray

Audio #1
ID                                       : 2
Format                                   : MLP FBA 16-ch
Format/Info                              : Meridian Lossless Packing FBA with 16-channel presentation
Commercial name                          : Dolby TrueHD with Dolby Atmos
Codec ID                                 : A_TRUEHD
Duration                                 : 2 h 18 min
Bit rate mode                            : Variable
Bit rate                                 : 3 425 kb/s
Maximum bit rate                         : 5 928 kb/s
Channel(s)                               : 8 channels
Channel layout                           : L R C LFE Ls Rs Lb Rb
Sampling rate                            : 48.0 kHz
Frame rate                               : 1 200.000 FPS (40 SPF)
Compression mode                         : Lossless
Stream size                              : 3.31 GiB (5%)
Title                                    : TrueHD Atmos 7.1
Language                                 : English
Default                                  : Yes
Forced                                   : No
Number of dynamic objects                : 11
Bed channel count                        : 1 channel
Bed channel configuration                : LFE

Audio #2
ID                                       : 3
Format                                   : AC-3
Format/Info                              : Audio Coding 3
Commercial name                          : Dolby Digital
Format settings                          : Dolby Surround EX
Codec ID                                 : A_AC3
Duration                                 : 2 h 18 min
Bit rate mode                            : Constant
Bit rate                                 : 448 kb/s
Channel(s)                               : 6 channels
Channel layout                           : L R C LFE Ls Rs
Sampling rate                            : 48.0 kHz
Frame rate                               : 31.250 FPS (1536 SPF)
Compression mode                         : Lossy
Stream size                              : 443 MiB (1%)
Title                                    : AC-3 5.1-EX
Language                                 : English
Service kind                             : Complete Main
Default                                  : No
Forced                                   : No

Audio #3
ID                                       : 4
Format                                   : AC-3
Format/Info                              : Audio Coding 3
Commercial name                          : Dolby Digital
Format settings                          : Dolby Surround
Codec ID                                 : A_AC3
Duration                                 : 2 h 18 min
Bit rate mode                            : Constant
Bit rate                                 : 192 kb/s
Channel(s)                               : 2 channels
Channel layout                           : L R
Sampling rate                            : 48.0 kHz
Frame rate                               : 31.250 FPS (1536 SPF)
Compression mode                         : Lossy
Stream size                              : 190 MiB (0%)
Title                                    : Commentary by Philosophers Dr. Cornel West and Ken Wilber
Language                                 : English
Service kind                             : Complete Main
Default                                  : No
Forced                                   : No

Audio #4
ID                                       : 5
Format                                   : AC-3
Format/Info                              : Audio Coding 3
Commercial name                          : Dolby Digital
Format settings                          : Dolby Surround
Codec ID                                 : A_AC3
Duration                                 : 2 h 18 min
Bit rate mode                            : Constant
Bit rate                                 : 192 kb/s
Channel(s)                               : 2 channels
Channel layout                           : L R
Sampling rate                            : 48.0 kHz
Frame rate                               : 31.250 FPS (1536 SPF)
Compression mode                         : Lossy
Stream size                              : 190 MiB (0%)
Title                                    : Commentary by Film Critics Todd McCarthy, John Powers and David Thomson
Language                                 : English
Service kind                             : Complete Main
Default                                  : No
Forced                                   : No

Text #1
ID                                       : 6
Format                                   : PGS
Codec ID                                 : S_HDMV/PGS
Codec ID/Info                            : Picture based subtitle format used on BDs/HD-DVDs
Duration                                 : 2 h 16 min
Bit rate                                 : 24.4 kb/s
Count of elements                        : 2458
Stream size                              : 23.9 MiB (0%)
Title                                    : English (SDH)
Language                                 : English
Default                                  : No
Forced                                   : No

Text #2
ID                                       : 7
Format                                   : PGS
Codec ID                                 : S_HDMV/PGS
Codec ID/Info                            : Picture based subtitle format used on BDs/HD-DVDs
Duration                                 : 2 h 17 min
Bit rate                                 : 12.4 kb/s
Count of elements                        : 2404
Stream size                              : 12.2 MiB (0%)
Title                                    : Arabic
Language                                 : Arabic
Default                                  : No
Forced                                   : No

Text #3
ID                                       : 8
Format                                   : PGS
Codec ID                                 : S_HDMV/PGS
Codec ID/Info                            : Picture based subtitle format used on BDs/HD-DVDs
Duration                                 : 2 h 17 min
Bit rate                                 : 20.5 kb/s
Count of elements                        : 2120
Stream size                              : 20.2 MiB (0%)
Title                                    : Bulgarian
Language                                 : Bulgarian
Default                                  : No
Forced                                   : No

Text #4
ID                                       : 9
Format                                   : PGS
Codec ID                                 : S_HDMV/PGS
Codec ID/Info                            : Picture based subtitle format used on BDs/HD-DVDs
Duration                                 : 2 h 17 min
Bit rate                                 : 19.5 kb/s
Count of elements                        : 2394
Stream size                              : 19.2 MiB (0%)
Title                                    : Chinese (Mandarin Traditional)
Language                                 : Chinese
Default                                  : No
Forced                                   : No

Text #5
ID                                       : 10
Format                                   : PGS
Codec ID                                 : S_HDMV/PGS
Codec ID/Info                            : Picture based subtitle format used on BDs/HD-DVDs
Duration                                 : 2 h 16 min
Bit rate                                 : 17.8 kb/s
Count of elements                        : 2394
Stream size                              : 17.5 MiB (0%)
Title                                    : Croatian
Language                                 : Croatian
Default                                  : No
Forced                                   : No

Text #6
ID                                       : 11
Format                                   : PGS
Codec ID                                 : S_HDMV/PGS
Codec ID/Info                            : Picture based subtitle format used on BDs/HD-DVDs
Duration                                 : 2 h 16 min
Bit rate                                 : 19.4 kb/s
Count of elements                        : 2370
Stream size                              : 19.0 MiB (0%)
Title                                    : Czech
Language                                 : Czech
Default                                  : No
Forced                                   : No

Text #7
ID                                       : 12
Format                                   : PGS
Codec ID                                 : S_HDMV/PGS
Codec ID/Info                            : Picture based subtitle format used on BDs/HD-DVDs
Duration                                 : 2 h 16 min
Bit rate                                 : 21.1 kb/s
Count of elements                        : 1946
Stream size                              : 20.6 MiB (0%)
Title                                    : Danish
Language                                 : Danish
Default                                  : No
Forced                                   : No

Text #8
ID                                       : 13
Format                                   : PGS
Codec ID                                 : S_HDMV/PGS
Codec ID/Info                            : Picture based subtitle format used on BDs/HD-DVDs
Duration                                 : 2 h 16 min
Bit rate                                 : 19.8 kb/s
Count of elements                        : 1994
Stream size                              : 19.3 MiB (0%)
Title                                    : Dutch
Language                                 : Dutch
Default                                  : No
Forced                                   : No

Text #9
ID                                       : 14
Format                                   : PGS
Codec ID                                 : S_HDMV/PGS
Codec ID/Info                            : Picture based subtitle format used on BDs/HD-DVDs
Duration                                 : 2 h 16 min
Bit rate                                 : 20.8 kb/s
Count of elements                        : 1928
Stream size                              : 20.4 MiB (0%)
Title                                    : Finnish
Language                                 : Finnish
Default                                  : No
Forced                                   : No

Text #10
ID                                       : 15
Format                                   : PGS
Codec ID                                 : S_HDMV/PGS
Codec ID/Info                            : Picture based subtitle format used on BDs/HD-DVDs
Duration                                 : 2 h 16 min
Bit rate                                 : 20.5 kb/s
Count of elements                        : 2612
Stream size                              : 20.1 MiB (0%)
Title                                    : French
Language                                 : French
Default                                  : No
Forced                                   : No

Text #11
ID                                       : 16
Format                                   : PGS
Codec ID                                 : S_HDMV/PGS
Codec ID/Info                            : Picture based subtitle format used on BDs/HD-DVDs
Duration                                 : 2 h 16 min
Bit rate                                 : 26.0 kb/s
Count of elements                        : 2478
Stream size                              : 25.4 MiB (0%)
Title                                    : German (SDH)
Language                                 : German
Default                                  : No
Forced                                   : No

Text #12
ID                                       : 17
Format                                   : PGS
Codec ID                                 : S_HDMV/PGS
Codec ID/Info                            : Picture based subtitle format used on BDs/HD-DVDs
Duration                                 : 2 h 16 min
Bit rate                                 : 47.0 kb/s
Count of elements                        : 2392
Stream size                              : 45.9 MiB (0%)
Title                                    : Greek
Language                                 : Greek
Default                                  : No
Forced                                   : No

Text #13
ID                                       : 18
Format                                   : PGS
Codec ID                                 : S_HDMV/PGS
Codec ID/Info                            : Picture based subtitle format used on BDs/HD-DVDs
Duration                                 : 2 h 17 min
Bit rate                                 : 17.8 kb/s
Count of elements                        : 2396
Stream size                              : 17.5 MiB (0%)
Title                                    : Hebrew
Language                                 : Hebrew
Default                                  : No
Forced                                   : No

Text #14
ID                                       : 19
Format                                   : PGS
Codec ID                                 : S_HDMV/PGS
Codec ID/Info                            : Picture based subtitle format used on BDs/HD-DVDs
Duration                                 : 2 h 17 min
Bit rate                                 : 20.2 kb/s
Count of elements                        : 2178
Stream size                              : 19.9 MiB (0%)
Title                                    : Hungarian
Language                                 : Hungarian
Default                                  : No
Forced                                   : No

Text #15
ID                                       : 20
Format                                   : PGS
Codec ID                                 : S_HDMV/PGS
Codec ID/Info                            : Picture based subtitle format used on BDs/HD-DVDs
Duration                                 : 2 h 16 min
Bit rate                                 : 23.6 kb/s
Count of elements                        : 2402
Stream size                              : 23.1 MiB (0%)
Title                                    : Icelandic
Language                                 : Icelandic
Default                                  : No
Forced                                   : No

Text #16
ID                                       : 21
Format                                   : PGS
Codec ID                                 : S_HDMV/PGS
Codec ID/Info                            : Picture based subtitle format used on BDs/HD-DVDs
Duration                                 : 2 h 16 min
Bit rate                                 : 28.1 kb/s
Count of elements                        : 2378
Stream size                              : 27.4 MiB (0%)
Title                                    : Indonesian
Language                                 : Indonesian
Default                                  : No
Forced                                   : No

Text #17
ID                                       : 22
Format                                   : PGS
Codec ID                                 : S_HDMV/PGS
Codec ID/Info                            : Picture based subtitle format used on BDs/HD-DVDs
Duration                                 : 2 h 16 min
Bit rate                                 : 25.5 kb/s
Count of elements                        : 2482
Stream size                              : 24.9 MiB (0%)
Title                                    : Italian (SDH)
Language                                 : Italian
Default                                  : No
Forced                                   : No

Text #18
ID                                       : 23
Format                                   : PGS
Codec ID                                 : S_HDMV/PGS
Codec ID/Info                            : Picture based subtitle format used on BDs/HD-DVDs
Duration                                 : 2 h 16 min
Bit rate                                 : 18.9 kb/s
Count of elements                        : 2694
Stream size                              : 18.4 MiB (0%)
Title                                    : Japanese
Language                                 : Japanese
Default                                  : No
Forced                                   : No

Text #19
ID                                       : 24
Format                                   : PGS
Codec ID                                 : S_HDMV/PGS
Codec ID/Info                            : Picture based subtitle format used on BDs/HD-DVDs
Duration                                 : 2 h 16 min
Bit rate                                 : 15.1 kb/s
Count of elements                        : 2374
Stream size                              : 14.8 MiB (0%)
Title                                    : Korean
Language                                 : Korean
Default                                  : No
Forced                                   : No

Text #20
ID                                       : 25
Format                                   : PGS
Codec ID                                 : S_HDMV/PGS
Codec ID/Info                            : Picture based subtitle format used on BDs/HD-DVDs
Duration                                 : 2 h 16 min
Bit rate                                 : 22.2 kb/s
Count of elements                        : 2270
Stream size                              : 21.7 MiB (0%)
Title                                    : Norwegian
Language                                 : Norwegian
Default                                  : No
Forced                                   : No

Text #21
ID                                       : 26
Format                                   : PGS
Codec ID                                 : S_HDMV/PGS
Codec ID/Info                            : Picture based subtitle format used on BDs/HD-DVDs
Duration                                 : 2 h 17 min
Bit rate                                 : 16.6 kb/s
Count of elements                        : 2184
Stream size                              : 16.4 MiB (0%)
Title                                    : Polish
Language                                 : Polish
Default                                  : No
Forced                                   : No

Text #22
ID                                       : 27
Format                                   : PGS
Codec ID                                 : S_HDMV/PGS
Codec ID/Info                            : Picture based subtitle format used on BDs/HD-DVDs
Duration                                 : 2 h 16 min
Bit rate                                 : 23.2 kb/s
Count of elements                        : 2132
Stream size                              : 22.7 MiB (0%)
Title                                    : Portuguese (Brazilian)
Language                                 : Portuguese
Default                                  : No
Forced                                   : No

Text #23
ID                                       : 28
Format                                   : PGS
Codec ID                                 : S_HDMV/PGS
Codec ID/Info                            : Picture based subtitle format used on BDs/HD-DVDs
Duration                                 : 2 h 16 min
Bit rate                                 : 24.6 kb/s
Count of elements                        : 2502
Stream size                              : 24.1 MiB (0%)
Title                                    : Portuguese (Iberian)
Language                                 : Portuguese
Default                                  : No
Forced                                   : No

Text #24
ID                                       : 29
Format                                   : PGS
Codec ID                                 : S_HDMV/PGS
Codec ID/Info                            : Picture based subtitle format used on BDs/HD-DVDs
Duration                                 : 2 h 17 min
Bit rate                                 : 20.6 kb/s
Count of elements                        : 2454
Stream size                              : 20.2 MiB (0%)
Title                                    : Romanian
Language                                 : Romanian
Default                                  : No
Forced                                   : No

Text #25
ID                                       : 30
Format                                   : PGS
Codec ID                                 : S_HDMV/PGS
Codec ID/Info                            : Picture based subtitle format used on BDs/HD-DVDs
Duration                                 : 2 h 17 min
Bit rate                                 : 21.8 kb/s
Count of elements                        : 2372
Stream size                              : 21.5 MiB (0%)
Title                                    : Russian
Language                                 : Russian
Default                                  : No
Forced                                   : No

Text #26
ID                                       : 31
Format                                   : PGS
Codec ID                                 : S_HDMV/PGS
Codec ID/Info                            : Picture based subtitle format used on BDs/HD-DVDs
Duration                                 : 2 h 16 min
Bit rate                                 : 16.9 kb/s
Count of elements                        : 2378
Stream size                              : 16.5 MiB (0%)
Title                                    : Slovenian
Language                                 : Slovenian
Default                                  : No
Forced                                   : No

Text #27
ID                                       : 32
Format                                   : PGS
Codec ID                                 : S_HDMV/PGS
Codec ID/Info                            : Picture based subtitle format used on BDs/HD-DVDs
Duration                                 : 2 h 16 min
Bit rate                                 : 24.6 kb/s
Count of elements                        : 2588
Stream size                              : 24.1 MiB (0%)
Title                                    : Spanish (Castilian)
Language                                 : Spanish
Default                                  : No
Forced                                   : No

Text #28
ID                                       : 33
Format                                   : PGS
Codec ID                                 : S_HDMV/PGS
Codec ID/Info                            : Picture based subtitle format used on BDs/HD-DVDs
Duration                                 : 2 h 17 min
Bit rate                                 : 23.1 kb/s
Count of elements                        : 2380
Stream size                              : 22.7 MiB (0%)
Title                                    : Spanish (Latin American)
Language                                 : Spanish
Default                                  : No
Forced                                   : No

Text #29
ID                                       : 34
Format                                   : PGS
Codec ID                                 : S_HDMV/PGS
Codec ID/Info                            : Picture based subtitle format used on BDs/HD-DVDs
Duration                                 : 2 h 16 min
Bit rate                                 : 19.4 kb/s
Count of elements                        : 1768
Stream size                              : 18.9 MiB (0%)
Title                                    : Swedish
Language                                 : Swedish
Default                                  : No
Forced                                   : No

Text #30
ID                                       : 35
Format                                   : PGS
Codec ID                                 : S_HDMV/PGS
Codec ID/Info                            : Picture based subtitle format used on BDs/HD-DVDs
Duration                                 : 2 h 16 min
Bit rate                                 : 22.6 kb/s
Count of elements                        : 2648
Stream size                              : 22.1 MiB (0%)
Title                                    : Thai
Language                                 : Thai
Default                                  : No
Forced                                   : No

Text #31
ID                                       : 36
Format                                   : PGS
Codec ID                                 : S_HDMV/PGS
Codec ID/Info                            : Picture based subtitle format used on BDs/HD-DVDs
Duration                                 : 2 h 16 min
Bit rate                                 : 23.4 kb/s
Count of elements                        : 2386
Stream size                              : 22.9 MiB (0%)
Title                                    : Turkish
Language                                 : Turkish
Default                                  : No
Forced                                   : No

Text #32
ID                                       : 37
Format                                   : PGS
Codec ID                                 : S_HDMV/PGS
Codec ID/Info                            : Picture based subtitle format used on BDs/HD-DVDs
Duration                                 : 2 h 18 min
Bit rate                                 : 41.8 kb/s
Count of elements                        : 3868
Stream size                              : 41.2 MiB (0%)
Title                                    : Chinese (Mandarin Traditional) (Commentary #1)
Language                                 : Chinese
Default                                  : No
Forced                                   : No

Text #33
ID                                       : 38
Format                                   : PGS
Codec ID                                 : S_HDMV/PGS
Codec ID/Info                            : Picture based subtitle format used on BDs/HD-DVDs
Duration                                 : 2 h 18 min
Bit rate                                 : 29.9 kb/s
Count of elements                        : 3844
Stream size                              : 29.5 MiB (0%)
Title                                    : Korean (Commentary #1)
Language                                 : Korean
Default                                  : No
Forced                                   : No

Text #34
ID                                       : 39
Format                                   : PGS
Codec ID                                 : S_HDMV/PGS
Codec ID/Info                            : Picture based subtitle format used on BDs/HD-DVDs
Duration                                 : 2 h 17 min
Bit rate                                 : 33.3 kb/s
Count of elements                        : 3604
Stream size                              : 32.8 MiB (0%)
Title                                    : Japanese (Commentary #1)
Language                                 : Japanese
Default                                  : No
Forced                                   : No

Text #35
ID                                       : 40
Format                                   : PGS
Codec ID                                 : S_HDMV/PGS
Codec ID/Info                            : Picture based subtitle format used on BDs/HD-DVDs
Duration                                 : 2 h 18 min
Bit rate                                 : 37.9 kb/s
Count of elements                        : 3552
Stream size                              : 37.4 MiB (0%)
Title                                    : Chinese (Mandarin Traditional) (Commentary #2)
Language                                 : Chinese
Default                                  : No
Forced                                   : No

Text #36
ID                                       : 41
Format                                   : PGS
Codec ID                                 : S_HDMV/PGS
Codec ID/Info                            : Picture based subtitle format used on BDs/HD-DVDs
Duration                                 : 2 h 18 min
Bit rate                                 : 28.7 kb/s
Count of elements                        : 3568
Stream size                              : 28.4 MiB (0%)
Title                                    : Korean (Commentary #2)
Language                                 : Korean
Default                                  : No
Forced                                   : No

Text #37
ID                                       : 42
Format                                   : PGS
Codec ID                                 : S_HDMV/PGS
Codec ID/Info                            : Picture based subtitle format used on BDs/HD-DVDs
Duration                                 : 2 h 17 min
Bit rate                                 : 31.2 kb/s
Count of elements                        : 3401
Stream size                              : 30.7 MiB (0%)
Title                                    : Japanese (Commentary #2)
Language                                 : Japanese
Default                                  : No
Forced                                   : No

Menu
00:00:00.000                             : en:Trinity's In
00:03:52.232                             : en:Trust Me
00:08:57.370                             : en:Upgrades
00:12:18.905                             : en:Zion
00:16:26.319                             : en:Matter of Time
00:19:45.184                             : en:Homecomings
00:23:31.410                             : en:We Are Still Here
00:27:28.814                             : en:Celebrating Humanity
00:32:03.255                             : en:Smith Will Suffice
00:33:45.190                             : en:What Is Control?
00:37:59.444                             : en:Summoned
00:40:57.622                             : en:Seraph
00:43:46.958                             : en:The Oracle
00:50:44.708                             : en:Swarm of Smiths
00:55:10.474                             : en:Sticking It to Them
01:00:05.101                             : en:The Volunteer
01:02:51.768                             : en:Taste of Merovingian
01:08:54.297                             : en:Persephone's Kiss
01:13:08.884                             : en:Unlocking the Keymaker
01:16:23.412                             : en:Blade Leapers
01:20:33.829                             : en:Twin Trouble
01:22:49.131                             : en:Freeway Entrance
01:26:14.503                             : en:Cross-Vehicular Traffic
01:29:54.889                             : en:Biker Girl
01:32:52.901                             : en:Trucks Amuck
01:37:12.827                             : en:The Reason We're Here
01:40:53.381                             : en:Sacrifice and Sabotage
01:44:59.793                             : en:So Many of Me
01:48:14.154                             : en:The Architect
01:52:27.574                             : en:The One's Function
01:55:44.938                             : en:Neo's Choice
01:57:39.552                             : en:Not Letting Go
02:01:53.473                             : en:Bomb's Target
02:04:20.453                             : en:Feeling the Enemy
02:07:06.118                             : en:End Credits
02:16:31.683                             : en:The Matrix Revolutions Trailer
